:FULLY-SPECIFIED
:FORCE-ALL-JOINTS-BE-3DOF
:DEGREES
306
root 9.31744 15.3113 -23.9297 14.8873 62.2823 20.032
lfemur -14.2086 17.0492 -18.0741
ltibia 52.6759 -0 0
lfoot -18.9767 -26.2988 -0.337575
ltoes 56.334 -0 0
rfemur -49.2008 -13.2365 28.0047
rtibia 52.4385 -0 0
rfoot 1.66672 -5.86093 0.374265
rtoes 19.6538 -0 0
lowerback 8.52103 -3.11347 -7.54659
upperback 4.93522 -4.52478 -4.3003
thorax 0.655884 -2.27874 0.0335296
lowerneck -3.5743 -11.7421 -2.82773
upperneck -1.30238 -15.6088 9.97321
head 1.35313 -7.75924 3.2101
lclavicle -9.38761e-14 -2.78299e-15 0
lhumerus -43.7073 -46.4604 102.621
lradius 59.9262 -0 0
lwrist 18.9836 0 0
lhand 17.7503 12.7584 0.0774314
lfingers 7.12502 -0 0
lthumb 42.4252 37.1336 0.0492272
rclavicle -9.38761e-14 -2.78299e-15 0
rhumerus -36.1728 40.1285 -76.7031
rradius 77.3812 -0 0
rwrist -3.01893 0 0
rhand -14.0939 -16.0169 -0.168551
rfingers 7.12502 -0 0
rthumb 12.019 -45.275 -0.091513
307
root 9.26562 15.3384 -23.9379 14.065 60.6004 18.7526
lfemur -14.322 17.6245 -17.871
ltibia 52.1687 -0 0
lfoot -19.4134 -25.3509 -0.326141
ltoes 56.3152 -0 0
rfemur -50.516 -14.1434 28.192
rtibia 53.0933 -0 0
rfoot 2.03403 -4.15961 0.384982
rtoes 15.7936 -0 0
lowerback 8.69411 -2.91272 -7.44905
upperback 4.94835 -4.27082 -4.30429
thorax 0.552532 -2.14863 -0.0301841
lowerneck -3.70571 -11.6741 -2.38983
upperneck -1.8528 -15.4884 10.0727
head 1.15893 -7.71088 3.18783
lclavicle -9.38761e-14 -2.78299e-15 0
lhumerus -44.1686 -47.1611 102.981
lradius 59.8218 -0 0
lwrist 18.9212 0 0
lhand 17.4087 12.4111 0.0758799
lfingers 7.12502 -0 0
lthumb 42.1055 36.8968 0.0481984
rclavicle -9.38761e-14 -2.78299e-15 0
rhumerus -31.6565 39.3382 -73.204
rradius 77.0163 -0 0
rwrist -5.16903 0 0
rhand -12.6545 -16.3534 -0.140593
rfingers 7.12502 -0 0
rthumb 13.4062 -45.5304 -0.0664069
308
root 9.21117 15.3677 -23.9396 13.3669 58.9253 17.5791
lfemur -14.455 18.1817 -17.6805
ltibia 51.6387 -0 0
lfoot -19.825 -24.3943 -0.306317
ltoes 56.3112 -0 0
rfemur -51.8502 -15.0305 28.3743
rtibia 53.8098 -0 0
rfoot 2.41376 -2.44498 0.384132
rtoes 11.8903 -0 0
lowerback 8.86435 -2.71514 -7.34111
upperback 4.95514 -4.0202 -4.30401
thorax 0.443707 -2.02012 -0.0946734
lowerneck -3.83957 -11.6042 -1.95555
upperneck -2.39955 -15.3657 10.1624
head 0.96554 -7.66179 3.16298
lclavicle -9.38761e-14 -2.78299e-15 0
lhumerus -44.6462 -47.8392 103.363
lradius 59.7156 -0 0
lwrist 18.8614 0 0
lhand 17.0705 12.068 0.072229
lfingers 7.12502 -0 0
lthumb 41.7891 36.6631 0.0458363
rclavicle -9.38761e-14 -2.78299e-15 0
rhumerus -27.3351 38.2805 -69.9109
rradius 76.5879 -0 0
rwrist -7.26931 0 0
rhand -11.2345 -16.6504 -0.108563
rfingers 7.12502 -0 0
rthumb 14.7748 -45.7477 -0.0392947
309
root 9.1546 15.3989 -23.9324 12.7811 57.277 16.5041
lfemur -14.6071 18.7144 -17.5052
ltibia 51.0914 -0 0
lfoot -20.2062 -23.4393 -0.27894
ltoes 56.3222 -0 0
rfemur -53.189 -15.8883 28.5485
rtibia 54.5818 -0 0
rfoot 2.80174 -0.735287 0.371209
rtoes 7.98529 -0 0
lowerback 9.02989 -2.52295 -7.22378
upperback 4.95542 -3.77568 -4.2994
thorax 0.330472 -1.89464 -0.159266
lowerneck -3.97451 -11.5329 -1.52966
upperneck -2.93669 -15.2424 10.241
head 0.775062 -7.61251 3.13577
lclavicle -9.38761e-14 -2.78299e-15 0
lhumerus -45.1353 -48.4865 103.764
lradius 59.6086 -0 0
lwrist 18.8049 0 0
lhand 16.7396 11.7328 0.0666186
lfingers 7.12502 -0 0
lthumb 41.4794 36.4351 0.0422331
rclavicle -9.38761e-14 -2.78299e-15 0
rhumerus -23.2796 36.9915 -66.8865
rradius 76.0993 -0 0
rwrist -9.29607 0 0
rhand -9.84962 -16.9039 -0.0746337
rfingers 7.12502 -0 0
rthumb 16.1095 -45.9237 -0.0121089
310
root 9.09641 15.4316 -23.914 12.2959 55.6754 15.5205
lfemur -14.7779 19.2162 -17.3477
ltibia 50.5319 -0 0
lfoot -20.5522 -22.4959 -0.24515
ltoes 56.3487 -0 0
rfemur -54.5177 -16.7076 28.7105
rtibia 55.4027 -0 0
rfoot 3.19376 0.951181 0.34619
rtoes 4.11951 -0 0
lowerback 9.18885 -2.33836 -7.09805
upperback 4.94901 -3.54005 -4.29042
thorax 0.213891 -1.77361 -0.223278
lowerneck -4.10917 -11.4612 -1.11689
upperneck -3.45833 -15.1198 10.3074
head 0.589591 -7.56354 3.10641
lclavicle -9.38761e-14 -2.78299e-15 0
lhumerus -45.6301 -49.0954 104.179
lradius 59.5022 -0 0
lwrist 18.7524 0 0
lhand 16.4197 11.4095 0.0592736
lfingers 7.12502 -0 0
lthumb 41.18 36.2154 0.0375347
rclavicle -9.38761e-14 -2.78299e-15 0
rhumerus -19.5435 35.5154 -64.1756
rradius 75.5536 -0 0
rwrist -11.2256 0 0
rhand -8.51557 -17.1098 -0.0412453
rfingers 7.12502 -0 0
rthumb 17.3953 -46.0556 0.0130417
311
root 9.03709 15.4655 -23.8821 11.9004 54.1402 14.6223
lfemur -14.9667 19.6808 -17.2105
ltibia 49.9654 -0 0
lfoot -20.8577 -21.5744 -0.206363
ltoes 56.3909 -0 0
rfemur -55.821 -17.4794 28.8551
rtibia 56.2663 -0 0
rfoot 3.58569 2.59616 0.309542
rtoes 0.334139 -0 0
lowerback 9.33933 -2.16356 -6.96497
upperback 4.93573 -3.31606 -4.27703
thorax 0.0950346 -1.65846 -0.286015
lowerneck -4.24221 -11.3898 -0.721976
upperneck -3.95859 -14.9994 10.3607
head 0.411225 -7.51541 3.07515
lclavicle -9.38761e-14 -2.78299e-15 0
lhumerus -46.1243 -49.6581 104.603
lradius 59.3972 -0 0
lwrist 18.7045 0 0
lhand 16.1144 11.1016 0.0504979
lfingers 7.12502 -0 0
lthumb 40.8943 36.0066 0.0319375
rclavicle -9.38761e-14 -2.78299e-15 0
rhumerus -16.1637 33.9014 -61.8054
rradius 74.9542 -0 0
rwrist -13.0342 0 0
rhand -7.24797 -17.2644 -0.011021
rfingers 7.12502 -0 0
rthumb 18.6172 -46.1402 0.0339421
312
root 8.97715 15.5002 -23.8346 11.5848 52.6912 13.8047
lfemur -15.1732 20.1017 -17.0961
ltibia 49.3971 -0 0
lfoot -21.1178 -20.6847 -0.164221
ltoes 56.4493 -0 0
rfemur -57.0832 -18.195 28.9765
rtibia 57.166 -0 0
rfoot 3.97345 4.18139 0.262209
rtoes -3.32971 0 0
lowerback 9.47942 -2.00072 -6.82558
upperback 4.91538 -3.10649 -4.25918
thorax -0.0250195 -1.55058 -0.346773
lowerneck -4.37233 -11.3195 -0.349651
upperneck -4.43162 -14.8828 10.3999
head 0.242061 -7.46863 3.04221
lclavicle -9.38761e-14 -2.78299e-15 0
lhumerus -46.6111 -50.1669 105.031
lradius 59.2948 -0 0
lwrist 18.662 0 0
lhand 15.8275 10.8131 0.0406651
lfingers 7.12502 -0 0
lthumb 40.6259 35.8112 0.0256821
rclavicle -9.38761e-14 -2.78299e-15 0
rhumerus -13.1639 32.2004 -59.789
rradius 74.3043 -0 0
rwrist -14.6982 0 0
rhand -6.0625 -17.3639 0.0133202
rfingers 7.12502 -0 0
rthumb 19.7599 -46.1748 0.0483476
313
root 8.9171 15.5353 -23.7689 11.3399 51.3478 13.0638
lfemur -15.3968 20.4723 -17.0068
ltibia 48.8324 -0 0
lfoot -21.3277 -19.8369 -0.12055
ltoes 56.5242 -0 0
rfemur -58.2881 -18.8459 29.068
rtibia 58.0957 -0 0
rfoot 4.35305 5.68865 0.205593
rtoes -6.83092 0 0
lowerback 9.60718 -1.852 -6.68097
upperback 4.88778 -2.91411 -4.23681
thorax -0.14519 -1.45138 -0.404837
lowerneck -4.49825 -11.2514 -0.00462349
upperneck -4.87156 -14.7715 10.424
head 0.0841961 -7.4237 3.00783
lclavicle -9.38761e-14 -2.78299e-15 0
lhumerus -47.0826 -50.6145 105.455
lradius 59.1962 -0 0
lwrist 18.6256 0 0
lhand 15.5628 10.5478 0.0302081
lfingers 7.12502 -0 0
lthumb 40.3781 35.6319 0.0190464
rclavicle -9.38761e-14 -2.78299e-15 0
rhumerus -10.5581 30.4632 -58.1292
rradius 73.6072 -0 0
rwrist -16.1939 0 0
rhand -4.97479 -17.4046 0.0290645
rfingers 7.12502 -0 0
rthumb 20.8083 -46.1565 0.0540681
314
root 8.85742 15.5706 -23.683 11.1578 50.1296 12.3973
lfemur -15.637 20.7861 -16.9449
ltibia 48.2763 -0 0
lfoot -21.4823 -19.0411 -0.0772944
ltoes 56.6159 -0 0
rfemur -59.4195 -19.4237 29.1221
rtibia 59.0487 -0 0
rfoot 4.72063 7.09971 0.14151
rtoes -10.1284 0 0
lowerback 9.72066 -1.71954 -6.5322
upperback 4.85273 -2.74167 -4.20986
thorax -0.264393 -1.36227 -0.459481
lowerneck -4.6187 -11.1861 0.308405
upperneck -5.27259 -14.667 10.4321
head -0.0602716 -7.38112 2.97227
lclavicle -9.38761e-14 -2.78299e-15 0
lhumerus -47.5308 -50.9934 105.868
lradius 59.1024 -0 0
lwrist 18.596 0 0
lhand 15.3238 10.3093 0.019605
lfingers 7.12502 -0 0
lthumb 40.1544 35.4712 0.0123368
rclavicle -9.38761e-14 -2.78299e-15 0
rhumerus -8.35455 28.7388 -56.8213
rradius 72.866 -0 0
rwrist -17.4976 0 0
rhand -4.00054 -17.3829 0.0336113
rfingers 7.12502 -0 0
rthumb 21.7474 -46.0825 0.0490592
315
root 8.79862 15.6056 -23.5744 11.0315 49.0559 11.8038
lfemur -15.8931 21.0367 -16.9125
ltibia 47.7341 -0 0
lfoot -21.5769 -18.3073 -0.0364522
ltoes 56.7249 -0 0
rfemur -60.4606 -19.9202 29.1311
rtibia 60.0188 -0 0
rfoot 5.07249 8.39641 0.0721469
rtoes -13.1809 0 0
lowerback 9.81789 -1.60545 -6.38037
upperback 4.81003 -2.59195 -4.17825
thorax -0.381538 -1.28463 -0.50997
lowerneck -4.73243 -11.1248 0.584741
upperneck -5.62887 -14.5709 10.4234
head -0.189243 -7.3414 2.93578
lclavicle -9.38761e-14 -2.78299e-15 0
lhumerus -47.9468 -51.2963 106.263
lradius 59.0146 -0 0
lwrist 18.5739 0 0
lhand 15.1144 10.1015 0.0093629
lfingers 7.12502 -0 0
lthumb 39.9584 35.3318 0.00587773
rclavicle -9.38761e-14 -2.78299e-15 0
rhumerus -6.55893 27.0726 -55.8574
rradius 72.0841 -0 0
rwrist -18.5856 0 0
rhand -3.15546 -17.2952 0.0245926
rfingers 7.12502 -0 0
rthumb 22.5619 -45.95 0.0315203
316
root 8.74121 15.64 -23.441 10.9549 48.146 11.2832
lfemur -16.1644 21.2173 -16.9115
ltibia 47.211 0 0
lfoot -21.6068 -17.6456 0
ltoes 56.8514 0 0
rfemur -61.3946 -20.3273 29.0869
rtibia 60.9996 0 0
rfoot 5.40505 9.56059 0
rtoes -15.9475 0 0
lowerback 9.89686 -1.51185 -6.22656
upperback 4.75947 -2.46769 -4.14191
thorax -0.495535 -1.21986 -0.555565
lowerneck -4.83821 -11.0684 0.819699
upperneck -5.93458 -14.4845 10.3971
head -0.30062 -7.30501 2.8986
lclavicle -2.84262e-14 -2.38542e-15 0
lhumerus -48.3217 -51.5162 106.631
lradius 58.9338 0 0
lwrist 18.5599 0 0
lhand 14.9382 9.92808 0
lfingers 7.12502 0 0
lthumb 39.7935 35.2161 0
rclavicle -2.84262e-14 -2.38542e-15 0
rhumerus -5.17715 25.5061 -55.2285
rradius 71.2646 0 0
rwrist -19.4342 0 0
rhand -2.45532 -17.1378 0
rfingers 7.12502 0 0
rthumb 23.2366 -765.756 0
317
root 8.6915 15.6713 -23.3042 10.8573 46.9688 10.8515
lfemur -16.0485 21.4078 -16.708
ltibia 46.8043 -0 0
lfoot -21.1805 -16.0977 0.263395
ltoes 54.3798 -0 0
rfemur -61.5195 -20.535 28.5332
rtibia 61.0984 -0 0
rfoot 5.53636 9.3605 -0.032514
rtoes -16.6925 0 0
lowerback 9.68819 -1.46082 -6.08747
upperback 4.69092 -2.38033 -4.04474
thorax -0.458042 -1.17469 -0.543625
lowerneck -4.88836 -10.9973 0.948736
upperneck -6.06453 -14.3882 10.3368
head -0.356355 -7.25928 2.86482
lclavicle -2.84262e-14 -2.38542e-15 0
lhumerus -48.5642 -51.4061 106.934
lradius 58.8738 -0 0
lwrist 18.5585 0 0
lhand 14.6169 9.87549 -0.0116977
lfingers 7.12502 -0 0
lthumb 39.4907 35.2512 -0.0114685
rclavicle -2.84262e-14 -2.38542e-15 0
rhumerus -4.27618 24.6919 -54.7634
rradius 71.5287 -0 0
rwrist -19.6612 0 0
rhand -1.22796 -16.9602 0.0982917
rfingers 7.12502 -0 0
rthumb 24.4067 -45.3894 0.11848
318
root 8.65449 15.6975 -23.1853 10.7829 45.7378 10.4235
lfemur -15.8954 21.5673 -16.483
ltibia 46.3651 -0 0
lfoot -20.5914 -14.3124 0.562278
ltoes 51.351 -0 0
rfemur -61.5001 -20.6802 27.8051
rtibia 61.1466 -0 0
rfoot 5.65452 8.90713 -0.0607101
rtoes -17.136 0 0
lowerback 9.4101 -1.42228 -5.92837
upperback 4.60453 -2.3047 -3.92458
thorax -0.399796 -1.13537 -0.520889
lowerneck -4.93455 -10.9191 1.05288
upperneck -6.15633 -14.2855 10.2506
head -0.400723 -7.20896 2.82595
lclavicle -2.84262e-14 -2.38542e-15 0
lhumerus -48.7876 -51.1839 107.245
lradius 58.8128 -0 0
lwrist 18.5648 0 0
lhand 14.2652 9.8543 -0.0239876
lfingers 7.12502 -0 0
lthumb 39.159 35.3238 -0.0237645
rclavicle -2.84262e-14 -2.38542e-15 0
rhumerus -3.59025 23.9258 -54.4732
rradius 71.8899 -0 0
rwrist -19.6685 0 0
rhand 0.0983628 -16.6946 0.203453
rfingers 7.12502 -0 0
rthumb 25.6695 -44.9015 0.246641
